<?xml version="1.0" encoding="UTF-8"?>
<svg xmlns="http://www.w3.org/2000/svg" xmlns:xlink="http://www.w3.org/1999/xlink" width="30pt" height="30pt" viewBox="0 0 30 30" version="1.1">
<g id="surface1">
<path style=" stroke:none;fill-rule:nonzero;fill:rgb(0%,0%,0%);fill-opacity:1;" d="M 26.785156 7.878906 C 26.785156 7.867188 26.78125 7.851562 26.78125 7.839844 C 26.78125 7.835938 26.777344 7.832031 26.777344 7.828125 C 26.773438 7.808594 26.769531 7.796875 26.765625 7.78125 C 26.765625 7.777344 26.765625 7.777344 26.765625 7.773438 C 26.761719 7.757812 26.753906 7.742188 26.75 7.726562 C 26.75 7.726562 26.746094 7.726562 26.746094 7.722656 C 26.742188 7.707031 26.734375 7.695312 26.726562 7.683594 C 26.726562 7.679688 26.726562 7.675781 26.722656 7.675781 C 26.71875 7.660156 26.710938 7.648438 26.703125 7.636719 C 26.699219 7.632812 26.699219 7.628906 26.695312 7.628906 C 26.6875 7.617188 26.679688 7.605469 26.671875 7.597656 C 26.667969 7.59375 26.667969 7.585938 26.664062 7.582031 C 26.652344 7.570312 26.644531 7.5625 26.632812 7.550781 C 26.628906 7.546875 26.628906 7.546875 26.628906 7.542969 L 19.246094 0.164062 C 19.234375 0.148438 19.21875 0.136719 19.207031 0.125 C 19.203125 0.125 19.199219 0.121094 19.195312 0.117188 C 19.183594 0.109375 19.171875 0.101562 19.160156 0.09375 C 19.160156 0.0898438 19.15625 0.0898438 19.152344 0.0898438 C 19.140625 0.0820312 19.128906 0.0742188 19.113281 0.0664062 C 19.113281 0.0664062 19.109375 0.0625 19.109375 0.0625 C 19.09375 0.0546875 19.082031 0.046875 19.066406 0.0429688 C 19.066406 0.0429688 19.0625 0.0429688 19.0625 0.0429688 C 19.046875 0.0351562 19.03125 0.0273438 19.015625 0.0234375 C 19.015625 0.0234375 19.011719 0.0234375 19.011719 0.0234375 C 18.996094 0.0195312 18.980469 0.015625 18.960938 0.0117188 C 18.960938 0.0117188 18.957031 0.0117188 18.957031 0.0078125 C 18.941406 0.0078125 18.925781 0.00390625 18.910156 0.00390625 C 18.898438 0 18.886719 0 18.878906 0 C 18.871094 0 18.863281 0 18.855469 0 C 18.855469 0 18.855469 0 18.851562 0 L 3.765625 0 C 3.457031 0 3.210938 0.246094 3.210938 0.554688 L 3.210938 29.445312 C 3.210938 29.753906 3.457031 30 3.765625 30 L 26.234375 30 C 26.542969 30 26.789062 29.753906 26.789062 29.445312 L 26.789062 7.933594 C 26.789062 7.914062 26.789062 7.898438 26.785156 7.878906 Z M 24.898438 7.382812 L 19.40625 7.382812 L 19.40625 1.890625 Z M 25.683594 28.894531 L 4.316406 28.894531 L 4.316406 1.105469 L 18.300781 1.105469 L 18.300781 7.9375 C 18.300781 8.082031 18.359375 8.222656 18.460938 8.328125 C 18.566406 8.429688 18.707031 8.488281 18.855469 8.488281 L 25.683594 8.488281 Z M 25.683594 28.894531 "/>
<path style=" stroke:none;fill-rule:nonzero;fill:rgb(0%,0%,0%);fill-opacity:1;" d="M 11.300781 7.75 C 12.570312 7.75 13.605469 6.714844 13.605469 5.445312 C 13.605469 4.175781 12.570312 3.144531 11.300781 3.144531 C 10.03125 3.144531 9 4.175781 9 5.445312 C 9 6.714844 10.03125 7.75 11.300781 7.75 Z M 11.300781 4.25 C 11.960938 4.25 12.496094 4.789062 12.496094 5.445312 C 12.496094 6.105469 11.960938 6.640625 11.300781 6.640625 C 10.644531 6.640625 10.109375 6.105469 10.109375 5.445312 C 10.109375 4.789062 10.644531 4.25 11.300781 4.25 Z M 11.300781 4.25 "/>
<path style=" stroke:none;fill-rule:nonzero;fill:rgb(0%,0%,0%);fill-opacity:1;" d="M 8.730469 11.953125 C 9.035156 11.953125 9.285156 11.703125 9.285156 11.398438 L 9.285156 10.425781 C 9.285156 9.800781 9.792969 9.289062 10.421875 9.289062 L 12.195312 9.289062 C 12.824219 9.289062 13.335938 9.800781 13.335938 10.425781 L 13.335938 11.398438 C 13.335938 11.703125 13.582031 11.953125 13.886719 11.953125 C 14.195312 11.953125 14.441406 11.703125 14.441406 11.398438 L 14.441406 10.425781 C 14.441406 9.1875 13.433594 8.179688 12.195312 8.179688 L 10.421875 8.179688 C 9.183594 8.179688 8.175781 9.1875 8.175781 10.425781 L 8.175781 11.398438 C 8.175781 11.703125 8.425781 11.953125 8.730469 11.953125 Z M 8.730469 11.953125 "/>
<path style=" stroke:none;fill-rule:nonzero;fill:rgb(0%,0%,0%);fill-opacity:1;" d="M 8.175781 15.859375 C 8.175781 16.164062 8.425781 16.410156 8.730469 16.410156 L 21.269531 16.410156 C 21.574219 16.410156 21.824219 16.164062 21.824219 15.859375 C 21.824219 15.550781 21.574219 15.304688 21.269531 15.304688 L 8.730469 15.304688 C 8.425781 15.304688 8.175781 15.550781 8.175781 15.859375 Z M 8.175781 15.859375 "/>
<path style=" stroke:none;fill-rule:nonzero;fill:rgb(0%,0%,0%);fill-opacity:1;" d="M 21.269531 23.496094 L 8.730469 23.496094 C 8.425781 23.496094 8.175781 23.746094 8.175781 24.050781 C 8.175781 24.355469 8.425781 24.605469 8.730469 24.605469 L 21.269531 24.605469 C 21.574219 24.605469 21.824219 24.355469 21.824219 24.050781 C 21.824219 23.746094 21.574219 23.496094 21.269531 23.496094 Z M 21.269531 23.496094 "/>
<path style=" stroke:none;fill-rule:nonzero;fill:rgb(0%,0%,0%);fill-opacity:1;" d="M 21.269531 19.402344 L 8.730469 19.402344 C 8.425781 19.402344 8.175781 19.648438 8.175781 19.953125 C 8.175781 20.261719 8.425781 20.507812 8.730469 20.507812 L 21.269531 20.507812 C 21.574219 20.507812 21.824219 20.261719 21.824219 19.953125 C 21.824219 19.648438 21.574219 19.402344 21.269531 19.402344 Z M 21.269531 19.402344 "/>
</g>
</svg>
