<?xml version="1.0" encoding="UTF-8"?>
<svg xmlns="http://www.w3.org/2000/svg" xmlns:xlink="http://www.w3.org/1999/xlink" width="30pt" height="30pt" viewBox="0 0 30 30" version="1.1">
<g id="surface1">
<path style=" stroke:none;fill-rule:nonzero;fill:rgb(0%,0%,0%);fill-opacity:1;" d="M 26.25 3.75 L 3.75 3.75 C 1.679688 3.75 0 5.429688 0 7.5 L 0 22.5 C 0 24.570312 1.679688 26.25 3.75 26.25 L 26.25 26.25 C 28.320312 26.25 30 24.570312 30 22.5 L 30 7.5 C 30 5.429688 28.320312 3.75 26.25 3.75 Z M 20.078125 13.757812 L 28.015625 6.953125 C 28.070312 7.128906 28.125 7.304688 28.125 7.5 L 28.125 22.5 C 28.125 22.628906 28.074219 22.746094 28.050781 22.867188 Z M 26.25 5.625 C 26.375 5.625 26.484375 5.671875 26.601562 5.695312 L 15 15.640625 L 3.398438 5.695312 C 3.515625 5.671875 3.625 5.625 3.75 5.625 Z M 1.949219 22.867188 C 1.921875 22.742188 1.875 22.628906 1.875 22.5 L 1.875 7.5 C 1.875 7.304688 1.929688 7.128906 1.984375 6.953125 L 9.921875 13.753906 Z M 3.75 24.375 C 3.558594 24.375 3.386719 24.320312 3.214844 24.265625 L 11.34375 14.976562 L 14.390625 17.585938 C 14.566406 17.738281 14.78125 17.8125 15 17.8125 C 15.21875 17.8125 15.433594 17.738281 15.609375 17.585938 L 18.65625 14.976562 L 26.785156 24.265625 C 26.613281 24.320312 26.441406 24.375 26.25 24.375 Z M 3.75 24.375 "/>
</g>
</svg>
