<?xml version="1.0" encoding="UTF-8"?>
<svg xmlns="http://www.w3.org/2000/svg" xmlns:xlink="http://www.w3.org/1999/xlink" width="30pt" height="30pt" viewBox="0 0 30 30" version="1.1">
<g id="surface1">
<path style=" stroke:none;fill-rule:nonzero;fill:rgb(0%,0%,0%);fill-opacity:1;" d="M 27.957031 7.828125 C 26.617188 5.535156 24.800781 3.714844 22.503906 2.375 C 20.210938 1.035156 17.703125 0.367188 14.984375 0.367188 C 12.265625 0.367188 9.757812 1.035156 7.464844 2.375 C 5.167969 3.714844 3.351562 5.535156 2.007812 7.828125 C 0.667969 10.125 0 12.632812 0 15.351562 C 0 18.617188 0.953125 21.550781 2.859375 24.160156 C 4.765625 26.769531 7.226562 28.574219 10.242188 29.574219 C 10.59375 29.640625 10.855469 29.59375 11.023438 29.4375 C 11.191406 29.28125 11.277344 29.085938 11.277344 28.851562 C 11.277344 28.8125 11.273438 28.460938 11.265625 27.796875 C 11.261719 27.136719 11.257812 26.554688 11.257812 26.0625 L 10.808594 26.140625 C 10.523438 26.191406 10.160156 26.214844 9.726562 26.207031 C 9.289062 26.203125 8.839844 26.15625 8.371094 26.070312 C 7.902344 25.988281 7.464844 25.792969 7.0625 25.488281 C 6.660156 25.179688 6.375 24.78125 6.203125 24.289062 L 6.007812 23.839844 C 5.878906 23.539062 5.675781 23.207031 5.394531 22.84375 C 5.113281 22.480469 4.832031 22.230469 4.546875 22.101562 L 4.410156 22.003906 C 4.316406 21.9375 4.234375 21.859375 4.15625 21.769531 C 4.078125 21.679688 4.019531 21.589844 3.980469 21.496094 C 3.941406 21.40625 3.972656 21.332031 4.078125 21.273438 C 4.183594 21.214844 4.371094 21.183594 4.644531 21.183594 L 5.035156 21.242188 C 5.292969 21.296875 5.617188 21.449219 6 21.710938 C 6.382812 21.972656 6.699219 22.308594 6.945312 22.726562 C 7.246094 23.257812 7.605469 23.664062 8.027344 23.945312 C 8.449219 24.226562 8.878906 24.363281 9.304688 24.363281 C 9.734375 24.363281 10.105469 24.332031 10.417969 24.265625 C 10.730469 24.203125 11.023438 24.105469 11.296875 23.972656 C 11.414062 23.101562 11.730469 22.433594 12.253906 21.964844 C 11.511719 21.886719 10.84375 21.769531 10.253906 21.613281 C 9.660156 21.457031 9.050781 21.203125 8.417969 20.851562 C 7.789062 20.5 7.265625 20.066406 6.847656 19.546875 C 6.433594 19.023438 6.089844 18.339844 5.824219 17.496094 C 5.558594 16.652344 5.421875 15.675781 5.421875 14.570312 C 5.421875 12.996094 5.9375 11.65625 6.964844 10.550781 C 6.484375 9.367188 6.53125 8.039062 7.101562 6.570312 C 7.480469 6.453125 8.039062 6.542969 8.78125 6.832031 C 9.519531 7.125 10.0625 7.378906 10.410156 7.585938 C 10.753906 7.792969 11.03125 7.96875 11.238281 8.113281 C 12.449219 7.773438 13.695312 7.605469 14.984375 7.605469 C 16.273438 7.605469 17.519531 7.773438 18.730469 8.113281 L 19.472656 7.644531 C 19.980469 7.332031 20.578125 7.046875 21.265625 6.785156 C 21.957031 6.523438 22.484375 6.453125 22.847656 6.570312 C 23.433594 8.039062 23.484375 9.367188 23.003906 10.550781 C 24.03125 11.65625 24.546875 12.996094 24.546875 14.570312 C 24.546875 15.675781 24.410156 16.652344 24.144531 17.507812 C 23.878906 18.359375 23.535156 19.039062 23.113281 19.554688 C 22.6875 20.070312 22.160156 20.5 21.53125 20.851562 C 20.898438 21.203125 20.289062 21.457031 19.695312 21.613281 C 19.105469 21.769531 18.4375 21.886719 17.695312 21.964844 C 18.371094 22.550781 18.710938 23.472656 18.710938 24.734375 L 18.710938 28.851562 C 18.710938 29.085938 18.792969 29.28125 18.957031 29.4375 C 19.117188 29.59375 19.375 29.636719 19.726562 29.574219 C 22.742188 28.570312 25.207031 26.765625 27.109375 24.160156 C 29.015625 21.550781 29.96875 18.613281 29.96875 15.351562 C 29.96875 12.632812 29.296875 10.125 27.957031 7.828125 Z M 27.957031 7.828125 "/>
</g>
</svg>
