<?xml version="1.0" encoding="UTF-8"?>
<svg xmlns="http://www.w3.org/2000/svg" xmlns:xlink="http://www.w3.org/1999/xlink" width="30pt" height="30pt" viewBox="0 0 30 30" version="1.1">
<g id="surface1">
<path style=" stroke:none;fill-rule:nonzero;fill:rgb(0%,0%,0%);fill-opacity:1;" d="M 30.007812 18.246094 L 30.007812 29.339844 L 23.578125 29.339844 L 23.578125 18.988281 C 23.578125 16.390625 22.644531 14.617188 20.316406 14.617188 C 18.539062 14.617188 17.484375 15.8125 17.019531 16.96875 C 16.847656 17.382812 16.804688 17.957031 16.804688 18.535156 L 16.804688 29.339844 L 10.371094 29.339844 C 10.371094 29.339844 10.457031 11.808594 10.371094 9.992188 L 16.804688 9.992188 L 16.804688 12.734375 C 16.789062 12.757812 16.773438 12.777344 16.761719 12.796875 L 16.804688 12.796875 L 16.804688 12.734375 C 17.660156 11.417969 19.183594 9.539062 22.601562 9.539062 C 26.835938 9.539062 30.007812 12.304688 30.007812 18.246094 Z M 3.640625 0.667969 C 1.441406 0.667969 0 2.109375 0 4.007812 C 0 5.867188 1.398438 7.355469 3.554688 7.355469 L 3.597656 7.355469 C 5.84375 7.355469 7.238281 5.867188 7.238281 4.007812 C 7.195312 2.109375 5.84375 0.667969 3.640625 0.667969 Z M 0.382812 29.339844 L 6.8125 29.339844 L 6.8125 9.992188 L 0.382812 9.992188 Z M 0.382812 29.339844 "/>
</g>
</svg>
